<?xml version="1.0" encoding="UTF-8" standalone="no"?>
<!-- Created with Inkscape (http://www.inkscape.org/) -->

<svg
   width="2048"
   height="512"
   viewBox="0 0 2048 512"
   version="1.1"
   id="svg5"
   inkscape:version="1.2.1 (9c6d41e410, 2022-07-14)"
   sodipodi:docname="download.svg"
   inkscape:export-filename="download.png"
   inkscape:export-xdpi="96"
   inkscape:export-ydpi="96"
   xmlns:inkscape="http://www.inkscape.org/namespaces/inkscape"
   xmlns:sodipodi="http://sodipodi.sourceforge.net/DTD/sodipodi-0.dtd"
   xmlns="http://www.w3.org/2000/svg"
   xmlns:svg="http://www.w3.org/2000/svg">
  <sodipodi:namedview
     id="namedview7"
     pagecolor="#505050"
     bordercolor="#ffffff"
     borderopacity="1"
     inkscape:showpageshadow="0"
     inkscape:pageopacity="0"
     inkscape:pagecheckerboard="1"
     inkscape:deskcolor="#505050"
     inkscape:document-units="px"
     showgrid="false"
     inkscape:zoom="0.4609375"
     inkscape:cx="543.45763"
     inkscape:cy="685.55932"
     inkscape:window-width="2560"
     inkscape:window-height="1355"
     inkscape:window-x="1920"
     inkscape:window-y="0"
     inkscape:window-maximized="1"
     inkscape:current-layer="layer3"
     showguides="true">
    <sodipodi:guide
       position="512,512"
       orientation="-1,0"
       id="guide1986"
       inkscape:locked="false"
       inkscape:label=""
       inkscape:color="rgb(0,134,229)" />
    <sodipodi:guide
       position="256,512"
       orientation="-1,0"
       id="guide1990"
       inkscape:locked="false"
       inkscape:label=""
       inkscape:color="rgb(0,134,229)" />
    <sodipodi:guide
       position="0,256"
       orientation="0,1"
       id="guide1992"
       inkscape:locked="false"
       inkscape:label=""
       inkscape:color="rgb(0,134,229)" />
    <sodipodi:guide
       position="1979.5,256"
       orientation="-1,0"
       id="guide2012"
       inkscape:locked="false"
       inkscape:label=""
       inkscape:color="rgb(0,134,229)" />
  </sodipodi:namedview>
  <defs
     id="defs2">
    <inkscape:path-effect
       effect="fillet_chamfer"
       id="path-effect1984"
       is_visible="true"
       lpeversion="1"
       nodesatellites_param="F,1,0,1,0,0.1,0,1 @ F,1,0,1,0,0.1,0,1 @ F,1,0,1,0,0.1,0,1 @ F,1,0,1,0,0.1,0,1"
       unit="px"
       method="auto"
       mode="F"
       radius="10"
       chamfer_steps="1"
       flexible="true"
       use_knot_distance="true"
       apply_no_radius="true"
       apply_with_radius="true"
       only_selected="false"
       hide_knots="false" />
    <inkscape:path-effect
       effect="fillet_chamfer"
       id="path-effect1982"
       is_visible="true"
       lpeversion="1"
       nodesatellites_param="F,0,0,1,0,256,0,1 @ F,0,0,1,0,240.81356,0,1 @ F,0,0,1,0,256.00011,0,1 @ F,0,0,1,0,256,0,1"
       unit="px"
       method="auto"
       mode="F"
       radius="0"
       chamfer_steps="1"
       flexible="true"
       use_knot_distance="true"
       apply_no_radius="true"
       apply_with_radius="true"
       only_selected="false"
       hide_knots="false" />
    <rect
       x="954.57629"
       y="99.796608"
       width="1488.2712"
       height="412.2034"
       id="rect790" />
  </defs>
  <g
     inkscape:label="Layer 1"
     inkscape:groupmode="layer"
     id="layer1">
    <path
       style="fill:#ffffff;fill-opacity:1;stroke-width:0;stroke-linecap:round;stroke-linejoin:round;stroke-dasharray:none;stroke-dashoffset:439.92"
       id="rect1252"
       width="2048"
       height="512"
       x="0"
       y="0"
       sodipodi:type="rect"
       inkscape:path-effect="#path-effect1984"
       d="m 204.8,0 h 1792 a 51.2,51.2 45 0 1 51.2,51.2 v 256 A 204.8,204.8 135 0 1 1843.2,512 H 51.2 A 51.2,51.2 45 0 1 0,460.8 v -256 A 204.8,204.8 135 0 1 204.8,0 Z" />
  </g>
  <g
     inkscape:groupmode="layer"
     id="layer2"
     inkscape:label="Layer 2">
    <path
       d="M 256,68.5 C 152.6875,68.5 68.5,152.6875 68.5,256 68.5,359.3125 152.6875,443.5 256,443.5 359.3125,443.5 443.5,359.3125 443.5,256 443.5,152.6875 359.3125,68.5 256,68.5 Z m -18.75,150 v -75 h 37.5 v 75 H 331 l -75,75 -75,-75 z m 112.5,131.25 h -187.5 v -37.5 h 187.5 z"
       id="path848"
       style="stroke-width:18.75" />
  </g>
  <g
     inkscape:groupmode="layer"
     id="layer3"
     inkscape:label="Layer 3">
    <g
       aria-label="Download"
       transform="matrix(1.0215935,0,0,1.0215935,-487.98251,-16.87099)"
       id="text788"
       style="font-weight:bold;font-size:303.37px;line-height:1.25;font-family:Ubuntu;-inkscape-font-specification:'Ubuntu, Bold';white-space:pre;shape-inside:url(#rect790);display:inline">
      <path
         d="m 1026.1715,344.15904 q 3.3371,0.30337 7.5842,0.60674 4.5506,0 10.618,0 35.4943,0 52.483,-17.89883 17.2921,-17.89883 17.2921,-49.44931 0,-33.06733 -16.382,-50.05605 -16.382,-16.98872 -51.8763,-16.98872 -4.8539,0 -10.0112,0.30337 -5.1573,0 -9.7078,0.60674 z m 136.8199,-66.7414 q 0,27.3033 -8.4944,47.62909 -8.4944,20.32579 -24.2696,33.67407 -15.4719,13.34828 -37.9213,20.02242 -22.4493,6.67414 -50.3594,6.67414 -12.7415,0 -29.7302,-1.21348 -16.98875,-0.91011 -33.37073,-4.24718 V 175.18195 q 16.38198,-3.0337 33.97743,-3.94381 17.8988,-1.21348 30.6404,-1.21348 26.9999,0 48.8425,6.0674 22.1461,6.0674 37.9213,19.11231 15.7752,13.04491 24.2696,33.3707 8.4944,20.32579 8.4944,48.84257 z"
         id="path300" />
      <path
         d="m 1348.6537,302.59735 q 0,18.80894 -5.4607,34.58418 -5.4607,15.47187 -15.7752,26.69656 -10.3146,10.92132 -24.8764,16.98872 -14.2584,6.0674 -32.1572,6.0674 -17.5955,0 -32.1572,-6.0674 -14.2584,-6.0674 -24.573,-16.98872 -10.3146,-11.22469 -16.0786,-26.69656 -5.764,-15.77524 -5.764,-34.58418 0,-18.80894 5.764,-34.28081 6.0674,-15.47187 16.382,-26.39319 10.6179,-10.92132 24.8763,-16.98872 14.5618,-6.0674 31.5505,-6.0674 17.2921,0 31.5505,6.0674 14.5617,6.0674 24.8763,16.98872 10.3146,10.92132 16.0786,26.39319 5.7641,15.47187 5.7641,34.28081 z m -46.1123,0 q 0,-20.93253 -8.4943,-32.76396 -8.191,-12.1348 -23.6629,-12.1348 -15.4719,0 -23.9662,12.1348 -8.4944,11.83143 -8.4944,32.76396 0,20.93253 8.4944,33.3707 8.4943,12.1348 23.9662,12.1348 15.4719,0 23.6629,-12.1348 8.4943,-12.43817 8.4943,-33.3707 z"
         id="path302" />
      <path
         d="m 1476.9784,291.06929 q -6.0674,23.05612 -13.0449,45.80887 -6.6742,22.75275 -14.2584,45.80887 h -35.191 q -5.4606,-12.74154 -11.8314,-30.337 -6.3708,-17.59546 -13.3483,-38.22462 -6.6741,-20.93253 -13.955,-43.98865 -6.9775,-23.35949 -13.6516,-47.02235 h 47.6291 q 2.4269,10.92132 5.1572,23.96623 3.0337,12.74154 6.0674,26.39319 3.3371,13.65165 6.6742,27.60667 3.6404,13.65165 7.2809,26.39319 3.9438,-13.34828 7.5842,-27.3033 3.9438,-13.95502 7.2809,-27.3033 3.6404,-13.65165 6.6741,-26.08982 3.3371,-12.74154 5.7641,-23.66286 h 32.7639 q 2.427,10.92132 5.4607,23.66286 3.0337,12.43817 6.3708,26.08982 3.337,13.34828 6.9775,27.3033 3.6404,13.95502 7.5842,27.3033 3.6404,-12.74154 7.2809,-26.39319 3.6404,-13.95502 6.6741,-27.60667 3.3371,-13.65165 6.0674,-26.39319 3.0337,-13.04491 5.4607,-23.96623 h 47.0223 q -6.6741,23.66286 -13.955,47.02235 -6.9775,23.05612 -13.955,43.98865 -6.6741,20.62916 -13.3483,38.22462 -6.3708,17.59546 -11.8314,30.337 h -35.1909 q -7.5843,-23.05612 -14.8652,-45.80887 -7.2808,-22.75275 -13.3482,-45.80887 z"
         id="path304" />
      <path
         d="m 1617.7416,228.57507 q 11.528,-3.33707 29.7302,-6.0674 18.2022,-3.0337 38.2247,-3.0337 20.3257,0 33.674,5.46066 13.6517,5.15729 21.5393,14.86513 7.8876,9.70784 11.2247,23.05612 3.3371,13.34828 3.3371,29.73026 v 90.10089 h -45.2022 V 298.0468 q 0,-21.84264 -5.764,-30.94374 -5.764,-9.1011 -21.5393,-9.1011 -4.8539,0 -10.3146,0.60674 -5.4606,0.30337 -9.7078,0.91011 v 123.16822 h -45.2021 z"
         id="path306" />
      <path
         d="m 1860.1338,385.72073 q -19.719,-0.30337 -32.1572,-4.24718 -12.1348,-3.94381 -19.4157,-10.92132 -6.9775,-7.28088 -9.7078,-17.29209 -2.427,-10.31458 -2.427,-23.05612 V 154.55279 l 45.2022,-7.28088 v 173.83101 q 0,6.0674 0.9101,10.92132 0.9101,4.85392 3.3371,8.19099 2.7303,3.33707 7.5842,5.46066 4.8539,2.12359 13.0449,2.73033 z"
         id="path308" />
      <path
         d="m 2041.5491,302.59735 q 0,18.80894 -5.4606,34.58418 -5.4607,15.47187 -15.7753,26.69656 -10.3146,10.92132 -24.8763,16.98872 -14.2584,6.0674 -32.1572,6.0674 -17.5955,0 -32.1573,-6.0674 -14.2584,-6.0674 -24.5729,-16.98872 -10.3146,-11.22469 -16.0786,-26.69656 -5.7641,-15.77524 -5.7641,-34.58418 0,-18.80894 5.7641,-34.28081 6.0674,-15.47187 16.3819,-26.39319 10.618,-10.92132 24.8764,-16.98872 14.5617,-6.0674 31.5505,-6.0674 17.292,0 31.5504,6.0674 14.5618,6.0674 24.8764,16.98872 10.3146,10.92132 16.0786,26.39319 5.764,15.47187 5.764,34.28081 z m -46.1122,0 q 0,-20.93253 -8.4944,-32.76396 -8.191,-12.1348 -23.6628,-12.1348 -15.4719,0 -23.9663,12.1348 -8.4943,11.83143 -8.4943,32.76396 0,20.93253 8.4943,33.3707 8.4944,12.1348 23.9663,12.1348 15.4718,0 23.6628,-12.1348 8.4944,-12.43817 8.4944,-33.3707 z"
         id="path310" />
      <path
         d="m 2137.4136,351.13655 q 6.6741,0 12.7415,-0.30337 6.0674,-0.30337 9.7079,-0.91011 v -34.28081 q -2.7304,-0.60674 -8.191,-1.21348 -5.4607,-0.60674 -10.0112,-0.60674 -6.3708,0 -12.1348,0.91011 -5.4607,0.60674 -9.7079,2.73033 -4.2472,2.12359 -6.6741,5.76403 -2.427,3.64044 -2.427,9.1011 0,10.61795 6.9775,14.86513 7.2809,3.94381 19.7191,3.94381 z m -3.6405,-132.26932 q 20.0225,0 33.3707,4.55055 13.3483,4.55055 21.2359,13.04491 8.191,8.49436 11.5281,20.62916 3.3371,12.1348 3.3371,26.99993 v 94.0447 q -9.7079,2.12359 -27,4.85392 -17.292,3.0337 -41.865,3.0337 -15.4719,0 -28.2134,-2.73033 -12.4382,-2.73033 -21.5393,-8.79773 -9.1011,-6.37077 -13.955,-16.38198 -4.8539,-10.01121 -4.8539,-24.57297 0,-13.95502 5.4606,-23.66286 5.7641,-9.70784 15.1685,-15.47187 9.4045,-5.76403 21.5393,-8.19099 12.1348,-2.73033 25.1797,-2.73033 8.7977,0 15.4719,0.91011 6.9775,0.60674 11.2247,1.82022 v -4.24718 q 0,-11.52806 -6.9775,-18.50557 -6.9776,-6.97751 -24.2696,-6.97751 -11.5281,0 -22.7528,1.82022 -11.2247,1.51685 -19.4157,4.55055 l -5.764,-36.4044 q 3.9438,-1.21348 9.7078,-2.42696 6.0674,-1.51685 13.0449,-2.42696 6.9776,-1.21348 14.5618,-1.82022 7.8876,-0.91011 15.7752,-0.91011 z"
         id="path312" />
      <path
         d="m 2282.7276,301.68724 q 0,20.93253 9.4045,33.67407 9.4045,12.74154 27.91,12.74154 6.0674,0 11.2247,-0.30337 5.1573,-0.60674 8.4944,-1.21348 v -82.21327 q -4.2472,-2.73033 -11.2247,-4.55055 -6.6741,-1.82022 -13.6516,-1.82022 -32.1573,0 -32.1573,43.68528 z m 102.2357,75.8425 q -6.0674,1.82022 -13.955,3.64044 -7.8876,1.51685 -16.6853,2.73033 -8.4944,1.21348 -17.5955,1.82022 -8.7977,0.91011 -16.9887,0.91011 -19.7191,0 -35.1909,-5.76403 -15.4719,-5.76403 -26.0899,-16.38198 -10.6179,-10.92132 -16.3819,-26.08982 -5.4607,-15.47187 -5.4607,-34.58418 0,-19.41568 4.8539,-34.88755 4.8539,-15.77524 13.955,-26.69656 9.1011,-10.92132 22.146,-16.68535 13.3483,-5.76403 30.337,-5.76403 9.4045,0 16.6854,1.82022 7.5842,1.82022 15.1685,5.15729 v -72.20206 l 45.2021,-7.28088 z"
         id="path314" />
    </g>
  </g>
</svg>
